<?xml version="1.0" encoding="utf-8"?>
<!-- Generator: Adobe Illustrator 25.0.0, SVG Export Plug-In . SVG Version: 6.00 Build 0)  -->
<svg version="1.1" id="Layer_1" xmlns="http://www.w3.org/2000/svg" xmlns:xlink="http://www.w3.org/1999/xlink" x="0px" y="0px"
	 viewBox="0 0 100 100" style="enable-background:new 0 0 100 100;" xml:space="preserve">
<style type="text/css">
	.st0{fill:#15E2FF;}
</style>
<path class="st0" d="M79.8,85.2c-8.8,15.3-24.1,1.4-30.2,1c-6.1,0.4-21.4,14.3-30.2-1c-9.1-15.8,5.2-20.9,9.8-27.5
	c4.5-6.5,9.9-15.7,20.2-15.9c0,0,0.1,0,0.1,0c0,0,0.1,0,0.1,0C60.1,42,65.5,51.3,70,57.7C74.6,64.3,88.9,69.4,79.8,85.2z"/>
<path class="st0" d="M50.7,42.2C50.7,42.2,50.7,42.2,50.7,42.2c0,0-0.1,0-0.1,0H50.7z"/>
<ellipse transform="matrix(0.9733 -0.2297 0.2297 0.9733 -9.3029 4.4205)" class="st0" cx="14.3" cy="42.2" rx="10.8" ry="12.8"/>
<ellipse transform="matrix(0.2297 -0.9733 0.9733 0.2297 24.6008 115.4313)" class="st0" cx="85.2" cy="42.2" rx="12.8" ry="10.8"/>
<ellipse transform="matrix(0.1094 -0.994 0.994 0.1094 33.6166 81.8834)" class="st0" cx="62.5" cy="22.2" rx="14.6" ry="11.8"/>
<ellipse transform="matrix(0.994 -0.1094 0.1094 0.994 -2.2148 3.9874)" class="st0" cx="35.2" cy="22.2" rx="11.8" ry="14.6"/>
</svg>
